<svg xmlns="http://www.w3.org/2000/svg" fill-rule="evenodd" viewBox="0 0 100 100">
    <path d="M83.526 7.519H16.475a1.5 1.5 0 0 0-1.5 1.5V90.98a1.5 1.5 0 0 0 1.5 1.5h67.051a1.5 1.5 0 0 0 1.5-1.5V9.019a1.5 1.5 0 0 0-1.5-1.5zm-1.5 81.961H17.975V10.519h64.051V89.48z"/>
    <path d="M23.93 85.027h52.14a1.5 1.5 0 0 0 1.5-1.5V16.472a1.5 1.5 0 0 0-1.5-1.5H23.93a1.5 1.5 0 0 0-1.5 1.5v67.055a1.5 1.5 0 0 0 1.5 1.5zm1.5-3V51.499h49.14v30.528H25.43zm49.14-64.054V48.5H25.43V17.973h49.14z"/>
    <path d="M38.827 34.715h22.344a1.5 1.5 0 0 0 1.5-1.5v-7.453a1.5 1.5 0 0 0-1.5-1.5H38.827a1.5 1.5 0 0 0-1.5 1.5v7.453a1.5 1.5 0 0 0 1.5 1.5zm1.5-7.453h19.344v4.453H40.327v-4.453zm20.844 30.527H38.827a1.5 1.5 0 0 0-1.5 1.5v7.453a1.5 1.5 0 0 0 1.5 1.5h22.344a1.5 1.5 0 0 0 1.5-1.5v-7.453a1.5 1.5 0 0 0-1.5-1.5zm-1.5 7.454H40.327V60.79h19.344v4.453z"/>
</svg>
